<svg width="15" height="15" viewBox="0 0 15 15" fill="none" xmlns="http://www.w3.org/2000/svg">
<path d="M7.125 14.25C6.14439 14.25 5.22078 14.0626 4.35417 13.6879C3.48756 13.3127 2.73284 12.8034 2.09 12.16C1.44717 11.5166 0.937866 10.7619 0.562088 9.89583C0.18631 9.02975 -0.00105112 8.10614 4.43511e-06 7.125C4.43511e-06 6.14122 0.187366 5.21682 0.562088 4.35179C0.937338 3.48624 1.44664 2.73231 2.09 2.09C2.73337 1.44769 3.48809 0.938389 4.35417 0.562083C5.22078 0.187361 6.14439 0 7.125 0C8.10878 0 9.03319 0.187361 9.89821 0.562083C10.7638 0.937333 11.518 1.44664 12.1608 2.09C12.8036 2.73336 13.3127 3.48729 13.6879 4.35179C14.0626 5.21735 14.25 6.14175 14.25 7.125C14.25 8.10561 14.0626 9.02922 13.6879 9.89583C13.3127 10.7624 12.8034 11.5172 12.16 12.16C11.5166 12.8028 10.7627 13.3121 9.89821 13.6879C9.03371 14.0637 8.10931 14.2511 7.125 14.25ZM7.125 13.4647C7.58945 12.8678 7.97262 12.2817 8.2745 11.7064C8.57587 11.1311 8.82102 10.4872 9.00996 9.77471H5.24005C5.44957 10.5273 5.69974 11.1913 5.99055 11.7665C6.28188 12.3418 6.66003 12.9079 7.125 13.4647ZM6.11721 13.3459C5.74777 12.9105 5.41052 12.3722 5.10546 11.7309C4.80041 11.0902 4.57346 10.4379 4.42463 9.77392H1.38859C1.84248 10.7582 2.48557 11.5657 3.31788 12.1964C4.15071 12.8266 5.08382 13.2098 6.11721 13.3459ZM8.1328 13.3459C9.16619 13.2098 10.0993 12.8266 10.9321 12.1964C11.7644 11.5657 12.4075 10.7582 12.8614 9.77392H9.82617C9.62562 10.4479 9.37307 11.1052 9.06855 11.746C8.76349 12.3872 8.45157 12.9211 8.1328 13.3459ZM1.06559 8.98304H4.25996C4.1998 8.65793 4.15757 8.34126 4.1333 8.03304C4.10796 7.72535 4.0953 7.42267 4.0953 7.125C4.0953 6.82733 4.1077 6.52465 4.1325 6.21696C4.15731 5.90926 4.19953 5.5926 4.25917 5.26696H1.06638C0.980352 5.5414 0.91306 5.84039 0.864504 6.16392C0.815949 6.48692 0.791671 6.80728 0.791671 7.125C0.791671 7.44272 0.815685 7.76335 0.863713 8.08687C0.911741 8.4104 0.979032 8.70886 1.06559 8.98225M5.05163 8.98225H9.19838C9.25855 8.65767 9.30077 8.34628 9.32505 8.04808C9.35038 7.75042 9.36305 7.44272 9.36305 7.125C9.36305 6.80728 9.35064 6.49958 9.32584 6.20192C9.30103 5.90425 9.25881 5.59286 9.19917 5.26775H5.05084C4.9912 5.59233 4.94898 5.90372 4.92417 6.20192C4.89937 6.49958 4.88696 6.80728 4.88696 7.125C4.88696 7.44272 4.89937 7.75042 4.92417 8.04808C4.94898 8.34575 4.99199 8.65714 5.05163 8.98225ZM9.99084 8.98225H13.1844C13.2704 8.70833 13.3377 8.40987 13.3863 8.08687C13.4343 7.76335 13.4583 7.44272 13.4583 7.125C13.4583 6.80728 13.4343 6.48665 13.3863 6.16313C13.3383 5.8396 13.271 5.54114 13.1844 5.26775H9.99005C10.0502 5.59233 10.0924 5.90874 10.1167 6.21696C10.142 6.52518 10.1547 6.82786 10.1547 7.125C10.1547 7.42214 10.1423 7.72482 10.1175 8.03304C10.0927 8.34126 10.0505 8.65793 9.99084 8.98304M9.82617 4.47608H12.8614C12.3975 3.47119 11.7621 2.66369 10.9551 2.05358C10.1481 1.44347 9.20735 1.05529 8.1328 0.889042C8.50224 1.37513 8.83448 1.93114 9.1295 2.55708C9.42453 3.1825 9.65675 3.82217 9.82617 4.47608ZM5.24005 4.47608H9.00996C8.80096 3.73297 8.54314 3.06111 8.2365 2.4605C7.92987 1.85989 7.55937 1.3015 7.125 0.785333C6.69064 1.30097 6.32014 1.85936 6.0135 2.4605C5.70687 3.06164 5.44852 3.7335 5.24005 4.47608ZM1.38938 4.47608H4.42463C4.59405 3.82269 4.82627 3.18303 5.1213 2.55708C5.41632 1.93114 5.74856 1.37513 6.118 0.889042C5.03395 1.05582 4.09081 1.44638 3.28859 2.06071C2.48637 2.6761 1.85303 3.48096 1.38859 4.47529" fill="#4883F9"/>
</svg>
