<svg width="8" height="12" viewBox="0 0 8 12" fill="none" xmlns="http://www.w3.org/2000/svg">
<path d="M0.313594 1.83895L4.48024 6.0056L0.313594 10.1722C0.214173 10.2717 0.135308 10.3897 0.0815012 10.5196C0.0276946 10.6495 1.04758e-09 10.7887 0 10.9293C-1.04757e-09 11.0699 0.0276946 11.2092 0.0815012 11.3391C0.135308 11.469 0.214173 11.587 0.313594 11.6864C0.413016 11.7858 0.531047 11.8647 0.660947 11.9185C0.790848 11.9723 0.930074 12 1.07068 12C1.21128 12 1.35051 11.9723 1.48041 11.9185C1.61031 11.8647 1.72834 11.7858 1.82776 11.6864L6.75686 6.75731C7.17567 6.3385 7.17567 5.66196 6.75686 5.24314L1.82776 0.31405C1.72841 0.214498 1.61041 0.135516 1.48049 0.0816269C1.35058 0.0277386 1.21132 0 1.07068 0C0.930033 0 0.79077 0.0277386 0.66086 0.0816269C0.53095 0.135516 0.412943 0.214498 0.313594 0.31405C-0.0944788 0.732862 -0.105218 1.42014 0.313594 1.83895Z" fill="black"/>
</svg>
