<svg width="24" height="24" viewBox="0 0 24 24" fill="none" xmlns="http://www.w3.org/2000/svg">
<path fill-rule="evenodd" clip-rule="evenodd" d="M5.00914 22C4.2108 22 3.45244 21.6829 2.88118 21.1188C2.30991 20.5547 2 19.7892 2 18.9909V5.00914C2 4.2108 2.31705 3.45244 2.88118 2.88118C3.4453 2.30991 4.2108 2 5.00914 2H18.9909C19.7892 2 20.5476 2.31705 21.1188 2.88118C21.6901 3.4453 22 4.2108 22 5.00914V18.9909C22 19.7892 21.6829 20.5476 21.1188 21.1188C20.5547 21.6901 19.7892 22 18.9909 22H5.00914ZM17.2199 13.5596H15.1063V20.5433H18.9909C19.1949 20.5438 19.397 20.5041 19.5856 20.4263C19.7742 20.3484 19.9456 20.2341 20.0898 20.0898C20.2341 19.9456 20.3484 19.7742 20.4263 19.5856C20.5041 19.397 20.5438 19.1949 20.5433 18.9909V5.00914C20.5435 4.80522 20.5034 4.60327 20.4255 4.41483C20.3475 4.2264 20.2332 4.05519 20.089 3.911C19.9448 3.76681 19.7736 3.65246 19.5852 3.57451C19.3967 3.49656 19.1948 3.45654 18.9909 3.45673H5.00914C4.59776 3.45786 4.20356 3.62178 3.91267 3.91267C3.62178 4.20356 3.45786 4.59776 3.45673 5.00914V18.9909C3.45786 19.4022 3.62178 19.7964 3.91267 20.0873C4.20356 20.3782 4.59776 20.5421 5.00914 20.5433H12.7783V13.5596H10.4504V11.2316H12.7783V9.98058C12.7783 7.60983 13.9323 6.56727 15.906 6.56727C16.83 6.56727 17.327 6.63439 17.5627 6.66724L17.577 6.66867V8.8966H16.2345C15.5576 8.8966 15.2376 9.18652 15.1405 9.77064C15.1172 9.92279 15.1062 10.0766 15.1077 10.2305V11.2259H17.5498L17.2171 13.5538L17.2199 13.5596Z" fill="white" stroke="white" stroke-width="0.3"/>
</svg>
