<svg width="24" height="24" viewBox="0 0 24 24" fill="none" xmlns="http://www.w3.org/2000/svg">
<path d="M20.3333 2C20.7416 2.00005 21.1356 2.14993 21.4406 2.42119C21.7457 2.69246 21.9406 3.06625 21.9883 3.47167L22 3.66667V20.3333C21.9999 20.7416 21.8501 21.1356 21.5788 21.4406C21.3075 21.7457 20.9338 21.9406 20.5283 21.9883L20.3333 22H3.66667C3.25844 21.9999 2.86444 21.8501 2.55938 21.5788C2.25432 21.3075 2.05943 20.9338 2.01167 20.5283L2 20.3333V3.66667C2.00005 3.25844 2.14993 2.86444 2.42119 2.55938C2.69246 2.25432 3.06625 2.05943 3.47167 2.01167L3.66667 2H20.3333ZM20.3333 3.66667H3.66667V20.3333H20.3333V3.66667ZM14.9033 9.71667C17.4067 9.71667 17.87 11.3633 17.87 13.505L17.8667 17.8667H15.4L15.395 13.6667C15.3783 12.8167 15.2317 11.8917 14.1133 11.8917C12.9083 11.8917 12.66 12.775 12.6333 13.74L12.63 17.8667H10.1617V9.91667H12.5317V11H12.565C12.8023 10.5945 13.145 10.2609 13.5568 10.0347C13.9685 9.80842 14.4338 9.69961 14.9033 9.71667ZM8.61 9.915V17.8667H6.13667V9.915H8.61ZM7.375 5.96167C7.75514 5.96167 8.11972 6.11268 8.38852 6.38148C8.65732 6.65028 8.80833 7.01486 8.80833 7.395C8.80833 7.77514 8.65732 8.13972 8.38852 8.40852C8.11972 8.67732 7.75514 8.82833 7.375 8.82833C6.99486 8.82833 6.63028 8.67732 6.36148 8.40852C6.09268 8.13972 5.94167 7.77514 5.94167 7.395C5.94167 7.01486 6.09268 6.65028 6.36148 6.38148C6.63028 6.11268 6.99486 5.96167 7.375 5.96167Z" fill="white"/>
</svg>
