<svg width="9" height="9" viewBox="0 0 9 9" fill="none" xmlns="http://www.w3.org/2000/svg">
<path d="M5.25939 1.30148L5.89136 2.51367C5.93837 2.6029 6.00585 2.67973 6.08827 2.73786C6.17069 2.79598 6.26571 2.83376 6.36555 2.84808L7.70036 3.03089C8.41417 3.12933 8.69092 4.00936 8.16302 4.49873L7.24895 5.3422C7.17115 5.41388 7.11273 5.50407 7.07914 5.60438C7.04556 5.7047 7.03789 5.81188 7.05686 5.91595L7.27989 7.15289C7.40392 7.84195 6.68702 8.37914 6.05786 8.06414L4.78211 7.43133C4.69429 7.38831 4.5978 7.36595 4.50002 7.36595C4.40223 7.36595 4.30574 7.38831 4.21792 7.43133L2.94217 8.06414C2.31273 8.37633 1.59611 7.84195 1.72014 7.15289L1.94317 5.91567C1.98255 5.70474 1.90942 5.48817 1.75136 5.34192L0.837016 4.49873C0.30911 4.01217 0.58586 3.12905 1.29967 3.03061L2.63448 2.8478C2.73461 2.83437 2.83002 2.79695 2.91258 2.73873C2.99514 2.6805 3.06241 2.6032 3.10867 2.51339L3.74092 1.30148C4.06267 0.691172 4.94017 0.691172 5.25911 1.30148" fill="#FCD53F"/>
</svg>
